<svg xmlns="http://www.w3.org/2000/svg" viewBox="0 0 470 740" role="img" aria-label="Front head view">

  <!-- Anatomical naming: viewer's right = patient's LEFT -->

  <path class="head-region" data-region="front_forehead_left" d="M 207 6 L 207 230 L 251 234 L 288 228 L 309 229 L 378 214 L 404 183 L 404 155 L 398 121 L 366 70 L 343 47 L 307 27 L 266 14 Z"/>
  <path class="head-region" data-region="front_forehead_right" d="M 235 7 L 200 7 L 141 21 L 90 49 L 69 71 L 42 113 L 33 153 L 33 183 L 45 191 L 65 220 L 91 219 L 155 229 L 172 228 L 183 232 L 231 229 L 234 222 Z"/>
  <path class="head-region" data-region="front_nose" d="M 175 211 L 175 227 L 179 239 L 179 304 L 175 315 L 175 345 L 182 358 L 206 359 L 238 356 L 238 333 L 234 317 L 234 300 L 236 293 L 236 243 L 234 236 L 235 212 L 213 211 L 207 208 L 202 211 Z"/>
  <path class="head-region" data-region="front_face_left" d="M 368 197 L 328 203 L 317 207 L 268 209 L 252 213 L 239 212 L 235 215 L 238 233 L 236 236 L 235 314 L 239 335 L 239 357 L 315 352 L 329 347 L 369 340 L 371 328 L 358 304 L 358 293 L 354 287 L 353 274 L 356 244 L 363 229 L 367 210 L 371 206 Z"/>
  <path class="head-region" data-region="front_face_right" d="M 46 200 L 45 214 L 55 247 L 56 269 L 54 304 L 45 325 L 45 339 L 51 344 L 70 346 L 88 352 L 173 357 L 175 352 L 174 316 L 178 302 L 178 242 L 174 216 L 169 213 L 143 209 Z"/>
  <path class="head-region" data-region="front_temple_right" d="M 42 167 L 39 248 L 35 258 L 27 264 L 22 272 L 22 285 L 34 358 L 43 381 L 56 372 L 70 353 L 79 345 L 81 326 L 89 309 L 91 257 L 78 208 L 69 199 L 55 177 Z"/>
  <path class="head-region" data-region="front_temple_left" d="M 402 164 L 384 186 L 370 199 L 371 205 L 367 211 L 362 233 L 356 247 L 353 273 L 354 286 L 358 293 L 358 305 L 371 328 L 373 338 L 380 345 L 385 354 L 386 361 L 398 373 L 404 374 L 412 359 L 423 294 L 424 267 L 408 249 L 406 238 L 404 167 Z"/>
  <path class="head-region" data-region="front_jaw_right" d="M 163 357 L 120 355 L 106 352 L 100 353 L 64 344 L 55 343 L 52 345 L 23 380 L 39 402 L 44 431 L 50 450 L 53 453 L 60 454 L 72 460 L 83 460 L 101 454 L 127 438 L 146 419 L 158 398 L 163 378 Z"/>
  <path class="head-region" data-region="front_jaw_left" d="M 266 359 L 262 366 L 263 386 L 271 408 L 283 426 L 290 433 L 310 448 L 344 463 L 353 461 L 360 455 L 370 454 L 377 442 L 383 408 L 396 384 L 402 378 L 385 362 L 386 360 L 372 339 L 351 347 L 327 349 L 312 354 Z"/>
  <path class="head-region" data-region="front_chin_left" d="M 369 452 L 345 463 L 337 471 L 334 471 L 325 480 L 323 480 L 302 501 L 298 509 L 292 513 L 292 517 L 281 530 L 280 535 L 272 547 L 266 564 L 266 569 L 263 574 L 263 590 L 273 584 L 290 567 L 356 487 L 370 461 L 371 454 Z"/>
  <path class="head-region" data-region="front_chin_right" d="M 50 453 L 51 459 L 68 489 L 113 545 L 145 581 L 153 588 L 163 592 L 160 573 L 151 551 L 151 547 L 148 544 L 142 530 L 120 498 L 89 471 L 85 470 L 80 463 L 73 460 L 67 460 L 58 455 Z"/>

</svg>
