<svg xmlns="http://www.w3.org/2000/svg" viewBox="0 0 470 740" role="img" aria-label="Back head view">

  <path class="head-region" data-region="back_crown_right" d="M 229 17 L 286 23 L 334 37 L 370 57 L 394 79 L 416 113 L 430 149 L 434 275 L 442 289 L 234 289 L 234 17 Z"/>
  <path class="head-region" data-region="back_crown_left" d="M 234 17 L 234 289 L 24 289 L 32 277 L 35 153 L 42 129 L 66 89 L 92 61 L 129 39 L 175 25 L 224 17 Z"/>
  <path class="head-region" data-region="back_occipital_right" d="M 442 289 L 451 297 L 454 313 L 438 399 L 414 435 L 405 477 L 392 507 L 374 533 L 361 537 L 234 537 L 234 289 Z"/>
  <path class="head-region" data-region="back_occipital_left" d="M 234 289 L 234 537 L 105 537 L 106 533 L 92 531 L 77 511 L 61 473 L 52 431 L 34 409 L 26 389 L 14 315 L 15 299 L 24 289 Z"/>
  <path class="head-region" data-region="back_neck_right" d="M 382 537 L 373 549 L 392 599 L 414 625 L 414 639 L 392 667 L 365 691 L 330 711 L 302 721 L 234 721 L 234 537 Z"/>
  <path class="head-region" data-region="back_neck_left" d="M 234 537 L 234 721 L 161 721 L 98 687 L 52 637 L 53 623 L 74 599 L 91 561 L 94 547 L 85 537 Z"/>

</svg>
