<svg xmlns="http://www.w3.org/2000/svg" viewBox="0 0 656 680" role="img" aria-label="Front head view">

  <!-- Anatomical naming: viewer's right = patient's LEFT -->

  <path class="head-region" data-region="front_forehead_left" d="M 337 -51 L 337 173 L 381 177 L 418 171 L 439 172 L 508 157 L 534 126 L 534 98 L 528 64 L 496 13 L 473 -10 L 437 -30 L 396 -43 Z"/>
  <path class="head-region" data-region="front_forehead_right" d="M 337 -48 L 302 -48 L 243 -34 L 192 -6 L 171 16 L 144 58 L 135 98 L 135 128 L 147 136 L 167 165 L 193 164 L 257 174 L 274 173 L 285 177 L 333 174 L 336 167 Z"/>
  <path class="head-region" data-region="front_nose" d="M 305 176 L 305 192 L 309 204 L 309 269 L 305 280 L 305 310 L 312 323 L 336 324 L 368 321 L 368 298 L 364 282 L 364 265 L 366 258 L 366 208 L 364 201 L 365 177 L 343 176 L 337 173 L 332 176 Z"/>
  <path class="head-region" data-region="front_face_left" d="M 498 162 L 458 168 L 447 172 L 398 174 L 382 178 L 369 177 L 365 180 L 368 198 L 366 201 L 365 279 L 369 300 L 369 322 L 445 317 L 459 312 L 499 305 L 501 293 L 488 269 L 488 258 L 484 252 L 483 239 L 486 209 L 493 194 L 497 175 L 501 171 Z"/>
  <path class="head-region" data-region="front_face_right" d="M 176 165 L 175 179 L 185 212 L 186 234 L 184 269 L 175 290 L 175 304 L 181 309 L 200 311 L 218 317 L 303 322 L 305 317 L 304 281 L 308 267 L 308 207 L 304 181 L 299 178 L 273 174 Z"/>
  <path class="head-region" data-region="front_temple_right" d="M 136 132 L 133 213 L 129 223 L 121 229 L 116 237 L 116 250 L 128 323 L 137 346 L 150 337 L 164 318 L 173 310 L 175 291 L 183 274 L 185 222 L 172 173 L 163 164 L 149 142 Z"/>
  <path class="head-region" data-region="front_temple_left" d="M 532 129 L 514 151 L 500 164 L 501 170 L 497 176 L 492 198 L 486 212 L 483 238 L 484 251 L 488 258 L 488 270 L 501 293 L 503 303 L 510 310 L 515 319 L 516 326 L 528 338 L 534 339 L 542 324 L 553 259 L 554 232 L 538 214 L 536 203 L 534 132 Z"/>
  <path class="head-region" data-region="front_jaw_right" d="M 279 322 L 236 320 L 222 317 L 216 318 L 180 309 L 171 308 L 168 310 L 139 345 L 155 367 L 160 396 L 166 415 L 169 418 L 176 419 L 188 425 L 199 425 L 217 419 L 243 403 L 262 384 L 274 363 L 279 343 Z"/>
  <path class="head-region" data-region="front_jaw_left" d="M 396 324 L 392 331 L 393 351 L 401 373 L 413 391 L 420 398 L 440 413 L 474 428 L 483 426 L 490 420 L 500 419 L 507 407 L 513 373 L 526 349 L 532 343 L 515 327 L 516 325 L 502 304 L 481 312 L 457 314 L 442 319 Z"/>
  <path class="head-region" data-region="front_chin_left" d="M 499 417 L 475 428 L 467 436 L 464 436 L 455 445 L 453 445 L 432 466 L 428 474 L 422 478 L 422 482 L 411 495 L 410 500 L 402 512 L 396 529 L 396 534 L 393 539 L 393 555 L 403 549 L 420 532 L 486 452 L 500 426 L 501 419 Z"/>
  <path class="head-region" data-region="front_chin_right" d="M 168 418 L 169 424 L 186 454 L 231 510 L 263 546 L 271 553 L 281 557 L 278 538 L 269 516 L 269 512 L 266 509 L 260 495 L 238 463 L 207 436 L 203 435 L 198 428 L 191 425 L 185 425 L 176 420 Z"/>

</svg>
