<svg xmlns="http://www.w3.org/2000/svg" viewBox="0 0 470 740" role="img" aria-label="Back head view">

  <path class="head-region" data-region="back_crown_right" d="M 239 17 L 233 32 L 233 150 L 237 198 L 235 291 L 245 297 L 261 293 L 323 293 L 414 284 L 433 278 L 431 150 L 422 123 L 400 86 L 380 64 L 344 41 L 302 26 Z"/>
  <path class="head-region" data-region="back_crown_left" d="M 230 19 L 191 21 L 130 38 L 95 58 L 70 82 L 48 115 L 37 142 L 33 166 L 31 276 L 75 287 L 161 294 L 223 294 L 232 289 L 235 283 L 236 198 L 232 152 L 234 26 Z"/>
  <path class="head-region" data-region="back_occipital_right" d="M 437 279 L 325 293 L 234 297 L 234 533 L 238 537 L 289 539 L 347 531 L 374 532 L 382 524 L 403 486 L 418 427 L 436 406 L 443 386 L 455 303 Z"/>
  <path class="head-region" data-region="back_occipital_left" d="M 34 281 L 14 304 L 23 377 L 34 410 L 54 437 L 63 480 L 87 527 L 103 533 L 155 540 L 234 542 L 235 298 L 87 291 Z"/>
  <path class="head-region" data-region="back_neck_right" d="M 360 533 L 322 535 L 287 541 L 242 539 L 237 545 L 234 556 L 234 704 L 240 722 L 289 715 L 323 704 L 348 692 L 370 677 L 407 636 L 408 628 L 383 598 Z"/>
  <path class="head-region" data-region="back_neck_left" d="M 108 534 L 94 580 L 81 605 L 60 631 L 62 638 L 92 671 L 136 700 L 189 719 L 233 723 L 236 719 L 233 706 L 233 559 L 237 540 L 194 542 L 173 538 L 150 539 Z"/>

</svg>
