<svg xmlns="http://www.w3.org/2000/svg" viewBox="0 0 500 677" role="img" aria-label="Front head view">

  <!-- Zones traced from user-created mask PNGs (Layer 1-11) -->

  <path class="head-region" data-region="front_forehead_right" d="M 249 -59 L 249 165 L 293 169 L 330 163 L 351 164 L 420 149 L 446 118 L 446 90 L 440 56 L 408 5 L 385 -18 L 349 -38 L 308 -51 Z"/>
  <path class="head-region" data-region="front_forehead_left" d="M 249 -56 L 214 -56 L 155 -42 L 104 -14 L 83 8 L 56 50 L 47 90 L 47 120 L 59 128 L 79 157 L 105 156 L 169 166 L 186 165 L 197 169 L 245 166 L 248 159 Z"/>
  <path class="head-region" data-region="front_nose" d="M 217 168 L 217 184 L 221 196 L 221 261 L 217 272 L 217 302 L 224 315 L 248 316 L 280 313 L 280 290 L 276 274 L 276 257 L 278 250 L 278 200 L 276 193 L 277 169 L 255 168 L 249 165 L 244 168 Z"/>
  <path class="head-region" data-region="front_face_right" d="M 410 154 L 370 160 L 359 164 L 310 166 L 294 170 L 281 169 L 277 172 L 280 190 L 278 193 L 277 271 L 281 292 L 281 314 L 357 309 L 371 304 L 411 297 L 413 285 L 400 261 L 400 250 L 396 244 L 395 231 L 398 201 L 405 186 L 409 167 L 413 163 Z"/>
  <path class="head-region" data-region="front_face_left" d="M 88 157 L 87 171 L 97 204 L 98 226 L 96 261 L 87 282 L 87 296 L 93 301 L 112 303 L 130 309 L 215 314 L 217 309 L 216 273 L 220 259 L 220 199 L 216 173 L 211 170 L 185 166 Z"/>
  <path class="head-region" data-region="front_temple_left" d="M 48 124 L 45 205 L 41 215 L 33 221 L 28 229 L 28 242 L 40 315 L 49 338 L 62 329 L 76 310 L 85 302 L 87 283 L 95 266 L 97 214 L 84 165 L 75 156 L 61 134 Z"/>
  <path class="head-region" data-region="front_temple_right" d="M 444 121 L 426 143 L 412 156 L 413 162 L 409 168 L 404 190 L 398 204 L 395 230 L 396 243 L 400 250 L 400 262 L 413 285 L 415 295 L 422 302 L 427 311 L 428 318 L 440 330 L 446 331 L 454 316 L 465 251 L 466 224 L 450 206 L 448 195 L 446 124 Z"/>
  <path class="head-region" data-region="front_jaw_left" d="M 191 314 L 148 312 L 134 309 L 128 310 L 92 301 L 83 300 L 80 302 L 51 337 L 67 359 L 72 388 L 78 407 L 81 410 L 88 411 L 100 417 L 111 417 L 129 411 L 155 395 L 174 376 L 186 355 L 191 335 Z"/>
  <path class="head-region" data-region="front_jaw_right" d="M 308 316 L 304 323 L 305 343 L 313 365 L 325 383 L 332 390 L 352 405 L 386 420 L 395 418 L 402 412 L 412 411 L 419 399 L 425 365 L 438 341 L 444 335 L 427 319 L 428 317 L 414 296 L 393 304 L 369 306 L 354 311 Z"/>
  <path class="head-region" data-region="front_chin_right" d="M 411 409 L 387 420 L 379 428 L 376 428 L 367 437 L 365 437 L 344 458 L 340 466 L 334 470 L 334 474 L 323 487 L 322 492 L 314 504 L 308 521 L 308 526 L 305 531 L 305 547 L 315 541 L 332 524 L 398 444 L 412 418 L 413 411 Z"/>
  <path class="head-region" data-region="front_chin_left" d="M 80 410 L 81 416 L 98 446 L 143 502 L 175 538 L 183 545 L 193 549 L 190 530 L 181 508 L 181 504 L 178 501 L 172 487 L 150 455 L 119 428 L 115 427 L 110 420 L 103 417 L 97 417 L 88 412 Z"/>

</svg>
