<svg xmlns="http://www.w3.org/2000/svg" viewBox="0 0 200 280" role="img" aria-label="Right side head view">

  <!-- ── Silhouette (face points right — mirror of left) ───────────────── -->
  <path class="head-outline" d="
    M 84 18
    C 102 16, 124 28, 134 50
    C 142 64, 144 80, 144 92
    C 144 102, 148 112, 154 124
    C 158 134, 152 146, 144 154
    C 138 160, 134 170, 130 180
    C 126 192, 120 204, 106 216
    L 106 256
    L 76 256
    L 76 216
    C 64 204, 48 176, 44 146
    C 40 116, 42 82, 50 54
    C 58 28, 70 18, 84 18 Z
  "/>

  <!-- Ear (left side of image = right ear) -->
  <path class="head-outline" d="
    M 68 106
    C 62 99, 44 101, 40 117
    C 36 133, 40 155, 47 162
    C 54 169, 63 167, 68 157
    C 73 147, 73 130, 68 117
    C 68 113, 68 109, 68 106 Z
  "/>
  <!-- Ear inner helix -->
  <path class="head-detail" d="
    M 62 114 C 56 108, 46 111, 43 124
    C 40 137, 45 153, 52 158
  "/>
  <!-- Ear lobe crease -->
  <path class="head-detail" d="M 65 153 C 62 160, 56 162, 52 158"/>
  <!-- Tragus -->
  <path class="head-detail" d="M 68 110 C 72 118, 72 128, 68 134"/>

  <!-- Hairline -->
  <path class="head-detail" d="M 134 50 C 126 34, 108 18, 84 18 C 68 18, 56 26, 50 42"/>

  <!-- Eyebrow -->
  <path class="head-detail" d="M 143 80 C 133 72, 120 70, 109 74"/>

  <!-- Eye — upper lid -->
  <path class="head-detail" d="M 143 90 C 133 82, 118 82, 109 89"/>
  <!-- Eye — lower lid -->
  <path class="head-detail" d="M 143 90 C 133 98, 118 98, 109 89"/>

  <!-- Nose bridge and tip -->
  <path class="head-detail" d="M 143 88 C 145 102, 149 114, 155 126"/>
  <!-- Nostril / under-nose -->
  <path class="head-detail" d="M 153 134 C 148 142, 138 146, 132 142"/>

  <!-- Philtrum -->
  <path class="head-detail" d="M 142 154 C 138 160, 132 160, 130 154"/>

  <!-- Upper lip -->
  <path class="head-detail" d="M 144 160 C 138 154, 126 154, 122 160"/>
  <!-- Lower lip -->
  <path class="head-detail" d="M 142 164 C 136 174, 122 173, 118 164"/>

  <!-- Chin -->
  <path class="head-detail" d="M 132 182 C 127 188, 120 190, 116 186"/>

  <!-- Jaw angle -->
  <path class="head-detail" d="M 114 204 C 110 210, 106 214, 106 218"/>

  <!-- Neck front line -->
  <path class="head-detail" d="M 106 218 C 110 232, 112 246, 112 256"/>

  <!-- Neck base -->
  <path class="head-detail" d="M 112 255 C 102 260, 86 260, 76 255"/>

  <!-- ── Clickable regions ──────────────────────────────────────────────── -->

  <!-- Crown -->
  <path class="head-region" data-region="right_crown" d="
    M 120 22 C 106 14, 80 16, 64 28
    C 58 38, 52 52, 54 66
    L 70 58 C 74 44, 86 28, 102 22 Z
  "/>

  <!-- Forehead -->
  <path class="head-region" data-region="right_forehead" d="
    M 134 50 C 130 34, 120 22, 104 20
    L 90 22 C 78 26, 68 40, 66 56
    L 70 90 C 84 86, 100 84, 114 80
    L 130 72 Z
  "/>

  <!-- Temple (above and in front of ear) -->
  <path class="head-region" data-region="right_temple" d="
    M 70 58 L 54 66 C 48 80, 46 96, 48 112
    L 68 112 L 68 106 C 68 94, 68 80, 70 68
    L 70 58 Z
  "/>

  <!-- Eye area -->
  <path class="head-region" data-region="right_eye" d="
    M 144 74 C 136 66, 120 64, 106 68
    L 106 104 C 120 104, 136 102, 144 96
    L 148 84 Z
  "/>

  <!-- Nose -->
  <path class="head-region" data-region="right_nose" d="
    M 144 88 C 140 80, 132 76, 122 78
    L 124 138 C 132 146, 142 144, 150 134
    L 156 116 Z
  "/>

  <!-- Ear -->
  <path class="head-region" data-region="right_ear" d="
    M 68 106
    C 62 99, 40 101, 40 117
    C 36 133, 40 155, 47 162
    C 54 169, 63 167, 68 157
    C 73 147, 73 130, 68 117
    C 68 113, 68 109, 68 106 Z
  "/>

  <!-- Cheek -->
  <path class="head-region" data-region="right_cheek" d="
    M 144 96 C 140 106, 136 118, 132 130
    L 132 154 C 140 150, 148 140, 154 128
    L 156 110 Z
  "/>

  <!-- Jaw -->
  <path class="head-region" data-region="right_jaw" d="
    M 132 140 C 128 150, 126 162, 128 176
    L 126 194 C 122 204, 116 214, 104 220
    L 96 216 C 106 206, 114 194, 120 182
    L 122 162 C 120 150, 120 140, 124 136 Z
  "/>

  <!-- Occipital (back of skull) -->
  <path class="head-region" data-region="right_occipital" d="
    M 68 58 L 54 66 C 46 86, 42 108, 44 132
    L 68 132 L 68 112
    C 48 112, 46 88, 52 68
    L 54 66 Z
  "/>

  <!-- Neck -->
  <path class="head-region" data-region="right_neck" d="
    M 108 216 C 112 226, 114 240, 114 256
    L 76 256 L 76 240
    C 76 228, 80 218, 84 214
    L 96 218 C 100 228, 104 234, 108 236
    L 110 226 Z
  "/>

</svg>
