<svg xmlns="http://www.w3.org/2000/svg" viewBox="0 0 500 677" role="img" aria-label="Front head view">

  <!-- Zones match the dashed-line divisions in head_diagram.png (front) -->
  <!-- The image is oriented: viewer's right = patient's left -->

  <!-- Right forehead (viewer's left) -->
  <path class="head-region" data-region="front_forehead_right" d="
    M 247 0
    C 190 0, 120 10, 80 50
    C 60 75, 50 105, 47 140
    L 47 170
    L 247 170
    Z
  "/>

  <!-- Left forehead (viewer's right) -->
  <path class="head-region" data-region="front_forehead_left" d="
    M 247 0
    C 305 0, 375 10, 415 50
    C 435 75, 445 105, 448 140
    L 448 170
    L 247 170
    Z
  "/>

  <!-- Right temple & cheek -->
  <path class="head-region" data-region="front_temple_right" d="
    M 47 170
    L 47 260
    C 30 300, 22 330, 22 360
    C 22 390, 30 410, 42 425
    L 217 425
    L 217 170
    Z
  "/>

  <!-- Right eye / nose area (center-right strip) -->
  <path class="head-region" data-region="front_face_right" d="
    M 217 170
    L 217 425
    L 247 425
    L 247 170
    Z
  "/>

  <!-- Left eye / nose area (center-left strip) -->
  <path class="head-region" data-region="front_face_left" d="
    M 247 170
    L 247 425
    L 277 425
    L 277 170
    Z
  "/>

  <!-- Left temple & cheek -->
  <path class="head-region" data-region="front_temple_left" d="
    M 448 170
    L 448 260
    C 465 300, 472 330, 472 360
    C 472 390, 465 410, 452 425
    L 277 425
    L 277 170
    Z
  "/>

  <!-- Right lower jaw -->
  <path class="head-region" data-region="front_jaw_right" d="
    M 42 425
    C 35 460, 40 500, 55 535
    L 80 575
    L 247 575
    L 247 425
    Z
  "/>

  <!-- Left lower jaw -->
  <path class="head-region" data-region="front_jaw_left" d="
    M 452 425
    C 460 460, 455 500, 440 535
    L 415 575
    L 247 575
    L 247 425
    Z
  "/>

  <!-- Right chin / neck -->
  <path class="head-region" data-region="front_neck_right" d="
    M 80 575
    C 100 615, 130 645, 170 660
    L 247 677
    L 247 575
    Z
  "/>

  <!-- Left chin / neck -->
  <path class="head-region" data-region="front_neck_left" d="
    M 415 575
    C 395 615, 365 645, 325 660
    L 247 677
    L 247 575
    Z
  "/>

</svg>
