<svg xmlns="http://www.w3.org/2000/svg" viewBox="0 0 200 280" role="img" aria-label="Back head view">
  <!-- Head silhouette — back view, slightly different shape (less facial taper) -->
  <path class="head-outline" d="
    M 100 18
    C 70 18, 42 30, 32 52
    C 22 74, 24 96, 28 112
    C 32 130, 38 144, 44 158
    C 50 172, 56 182, 60 194
    C 64 206, 66 218, 70 226
    C 76 236, 88 244, 100 244
    C 112 244, 124 236, 130 226
    C 134 218, 136 206, 140 194
    C 144 182, 150 172, 156 158
    C 162 144, 168 130, 172 112
    C 176 96, 178 74, 168 52
    C 158 30, 130 18, 100 18 Z
  "/>

  <!-- Ear outlines (back view — ears point away) -->
  <path class="head-detail" d="M 32 108 C 26 110, 22 118, 24 128 C 26 138, 32 142, 36 140"/>
  <path class="head-detail" d="M 168 108 C 174 110, 178 118, 176 128 C 174 138, 168 142, 164 140"/>

  <!-- Hair whorl hint -->
  <path class="head-detail" d="M 96 48 C 98 44, 102 44, 104 48 C 106 52, 102 56, 100 56 C 98 56, 96 54, 97 52"/>

  <!-- Neck column lines -->
  <path class="head-detail" d="M 82 230 L 82 252 M 118 230 L 118 252"/>
  <path class="head-detail" d="M 78 246 C 86 250, 114 250, 122 246"/>

  <!-- ── Clickable regions ─────────────────────────────────────────────── -->

  <!-- Crown / top -->
  <path class="head-region" data-region="back_crown" d="
    M 68 18 C 80 14, 120 14, 132 18
    L 132 42 C 116 36, 84 36, 68 42 Z
  "/>

  <!-- Upper occipital left -->
  <path class="head-region" data-region="back_occipital_left" d="
    M 34 60 C 40 44, 56 34, 68 34
    L 68 42 L 68 80 C 56 78, 44 74, 36 80
    L 32 70 Z
  "/>

  <!-- Upper occipital right -->
  <path class="head-region" data-region="back_occipital_right" d="
    M 166 60 C 160 44, 144 34, 132 34
    L 132 42 L 132 80 C 144 78, 156 74, 164 80
    L 168 70 Z
  "/>

  <!-- Occipital center -->
  <path class="head-region" data-region="back_occipital_center" d="
    M 68 34 C 84 28, 116 28, 132 34
    L 132 80 C 116 84, 84 84, 68 80 Z
  "/>

  <!-- Ear area left -->
  <path class="head-region" data-region="back_ear_left" d="
    M 32 90 C 34 80, 36 80, 40 82
    L 46 90 C 48 100, 48 110, 46 120
    L 38 122 C 34 116, 30 106, 32 90 Z
  "/>

  <!-- Ear area right -->
  <path class="head-region" data-region="back_ear_right" d="
    M 168 90 C 166 80, 164 80, 160 82
    L 154 90 C 152 100, 152 110, 154 120
    L 162 122 C 166 116, 170 106, 168 90 Z
  "/>

  <!-- Lower occipital left -->
  <path class="head-region" data-region="back_neck_left" d="
    M 36 80 C 44 74, 56 78, 68 80
    L 68 120 C 56 120, 44 122, 38 122
    L 34 110 Z
  "/>

  <!-- Lower occipital right -->
  <path class="head-region" data-region="back_neck_right" d="
    M 164 80 C 156 74, 144 78, 132 80
    L 132 120 C 144 120, 156 122, 162 122
    L 166 110 Z
  "/>

  <!-- Neck center (suboccipital) -->
  <path class="head-region" data-region="back_neck_center" d="
    M 68 80 C 84 84, 116 84, 132 80
    L 132 120 C 116 124, 84 124, 68 120 Z
  "/>

  <!-- Upper back / lower skull -->
  <path class="head-region" data-region="back_lower_skull" d="
    M 40 122 C 44 130, 52 140, 60 148
    L 78 148 C 74 136, 72 128, 68 120 Z
  "/>
  <path class="head-region" data-region="back_lower_skull_right" d="
    M 160 122 C 156 130, 148 140, 140 148
    L 122 148 C 126 136, 128 128, 132 120 Z
  "/>
</svg>
