<svg xmlns="http://www.w3.org/2000/svg" viewBox="0 0 200 280" role="img" aria-label="Back head view">

  <!-- ── Head outline (back — rounded base, no chin point) ─────────────── -->
  <path class="head-outline" d="
    M 100 20
    C 82 20, 54 30, 42 54
    C 30 78, 34 106, 38 128
    C 42 152, 54 174, 68 194
    C 80 210, 92 218, 100 218
    C 108 218, 120 210, 132 194
    C 146 174, 158 152, 162 128
    C 166 106, 170 78, 158 54
    C 146 30, 118 20, 100 20 Z
  "/>

  <!-- Left ear -->
  <path class="head-detail" d="M 38 116 C 32 118, 27 127, 29 139 C 31 151, 37 156, 41 154"/>
  <!-- Right ear -->
  <path class="head-detail" d="M 162 116 C 168 118, 173 127, 171 139 C 169 151, 163 156, 159 154"/>

  <!-- Hairline (back — curves around crown) -->
  <path class="head-detail" d="M 46 44 C 62 28, 82 20, 100 20 C 118 20, 138 28, 154 44"/>

  <!-- Neck column -->
  <path class="head-detail" d="M 84 218 L 82 252 M 116 218 L 118 252"/>
  <path class="head-detail" d="M 82 251 C 90 255, 110 255, 118 251"/>

  <!-- ── Clickable regions ──────────────────────────────────────────────── -->

  <!-- Crown -->
  <path class="head-region" data-region="back_crown" d="
    M 62 24 C 76 17, 124 17, 138 24
    C 126 38, 113 46, 100 48
    C 87 46, 74 38, 62 24 Z
  "/>

  <!-- Occipital left (upper left back) -->
  <path class="head-region" data-region="back_occipital_left" d="
    M 43 56 C 52 38, 68 25, 82 24
    L 96 48 L 96 136
    C 78 132, 60 124, 46 110
    L 40 86 Z
  "/>

  <!-- Occipital center (upper center back) -->
  <path class="head-region" data-region="back_occipital_center" d="
    M 96 48 C 98 44, 102 44, 104 48
    L 104 136 C 102 136, 98 136, 96 136 Z
  "/>

  <!-- Occipital right (upper right back) -->
  <path class="head-region" data-region="back_occipital_right" d="
    M 157 56 C 148 38, 132 25, 118 24
    L 104 48 L 104 136
    C 122 132, 140 124, 154 110
    L 160 86 Z
  "/>

  <!-- Ear area left -->
  <path class="head-region" data-region="back_ear_left" d="
    M 40 88 C 38 110, 38 132, 44 152
    L 56 158 C 54 144, 52 128, 52 110
    C 52 98, 52 90, 50 84 Z
  "/>

  <!-- Ear area right -->
  <path class="head-region" data-region="back_ear_right" d="
    M 160 88 C 162 110, 162 132, 156 152
    L 144 158 C 146 144, 148 128, 148 110
    C 148 98, 148 90, 150 84 Z
  "/>

  <!-- Neck left (lower left back) -->
  <path class="head-region" data-region="back_neck_left" d="
    M 44 152 C 50 168, 58 184, 70 198
    L 96 204 L 96 136
    C 78 132, 60 124, 46 110
    L 42 132 Z
  "/>

  <!-- Neck center (lower center back) -->
  <path class="head-region" data-region="back_neck_center" d="
    M 96 136 C 98 136, 102 136, 104 136
    L 104 204 C 102 205, 98 205, 96 204 Z
  "/>

  <!-- Neck right (lower right back) -->
  <path class="head-region" data-region="back_neck_right" d="
    M 156 152 C 150 168, 142 184, 130 198
    L 104 204 L 104 136
    C 122 132, 140 124, 154 110
    L 158 132 Z
  "/>

</svg>
