<svg xmlns="http://www.w3.org/2000/svg" viewBox="0 0 200 280" role="img" aria-label="Front head view">

  <!-- ── Head outline ───────────────────────────────────────────────────── -->
  <path class="head-outline" d="
    M 100 20
    C 82 20, 54 30, 42 54
    C 30 78, 34 106, 38 128
    C 42 150, 54 170, 68 188
    C 80 204, 92 214, 100 214
    C 108 214, 120 204, 132 188
    C 146 170, 158 150, 162 128
    C 166 106, 170 78, 158 54
    C 146 30, 118 20, 100 20 Z
  "/>

  <!-- Left ear -->
  <path class="head-detail" d="M 38 116 C 32 118, 27 127, 29 139 C 31 151, 37 155, 41 153"/>
  <!-- Right ear -->
  <path class="head-detail" d="M 162 116 C 168 118, 173 127, 171 139 C 169 151, 163 155, 159 153"/>

  <!-- Hairline -->
  <path class="head-detail" d="M 50 40 C 66 26, 84 20, 100 20 C 116 20, 134 26, 150 40"/>

  <!-- Left eyebrow -->
  <path class="head-detail" d="M 65 93 C 74 88, 85 87, 93 90"/>
  <!-- Right eyebrow -->
  <path class="head-detail" d="M 107 90 C 115 87, 126 88, 135 93"/>

  <!-- Left eye -->
  <path class="head-detail" d="M 66 100 C 74 94, 86 94, 93 100 C 86 106, 74 106, 66 100 Z"/>
  <!-- Right eye -->
  <path class="head-detail" d="M 107 100 C 114 94, 126 94, 134 100 C 126 106, 114 106, 107 100 Z"/>

  <!-- Nose bridge and tip -->
  <path class="head-detail" d="M 96 100 C 94 114, 91 127, 88 136 C 93 141, 107 141, 112 136 C 109 127, 106 114, 104 100"/>

  <!-- Philtrum -->
  <path class="head-detail" d="M 94 156 C 97 152, 103 152, 106 156"/>
  <!-- Mouth -->
  <path class="head-detail" d="M 83 162 C 92 168, 108 168, 117 162"/>

  <!-- Neck -->
  <path class="head-detail" d="M 85 214 L 83 250 M 115 214 L 117 250"/>
  <path class="head-detail" d="M 83 249 C 91 253, 109 253, 117 249"/>

  <!-- ── Clickable regions ──────────────────────────────────────────────── -->

  <!-- Crown -->
  <path class="head-region" data-region="front_crown" d="
    M 64 24 C 78 17, 122 17, 136 24
    C 124 36, 112 43, 100 45
    C 88 43, 76 36, 64 24 Z
  "/>

  <!-- Forehead left -->
  <path class="head-region" data-region="front_forehead_left" d="
    M 44 56 C 52 38, 68 25, 84 24
    L 96 45 L 96 90
    C 84 87, 72 91, 63 97
    L 50 78 Z
  "/>

  <!-- Forehead center -->
  <path class="head-region" data-region="front_forehead_center" d="
    M 96 45 C 98 40, 102 40, 104 45
    L 104 90 C 102 89, 98 89, 96 90 Z
  "/>

  <!-- Forehead right -->
  <path class="head-region" data-region="front_forehead_right" d="
    M 156 56 C 148 38, 132 25, 116 24
    L 104 45 L 104 90
    C 116 87, 128 91, 137 97
    L 150 78 Z
  "/>

  <!-- Temple left -->
  <path class="head-region" data-region="front_temple_left" d="
    M 40 130 C 38 112, 42 96, 50 80
    L 63 97 C 62 108, 62 120, 63 130
    L 52 136 Z
  "/>

  <!-- Temple right -->
  <path class="head-region" data-region="front_temple_right" d="
    M 160 130 C 162 112, 158 96, 150 80
    L 137 97 C 138 108, 138 120, 137 130
    L 148 136 Z
  "/>

  <!-- Eye area left -->
  <path class="head-region" data-region="front_eye_left" d="
    M 63 89 C 72 84, 85 84, 96 89
    L 96 116 C 86 120, 72 120, 63 113 Z
  "/>

  <!-- Eye area right -->
  <path class="head-region" data-region="front_eye_right" d="
    M 137 89 C 128 84, 115 84, 104 89
    L 104 116 C 114 120, 128 120, 137 113 Z
  "/>

  <!-- Nose / sinus -->
  <path class="head-region" data-region="front_nose" d="
    M 96 89 C 98 86, 102 86, 104 89
    L 108 143 C 104 146, 100 147, 96 146
    L 92 143 Z
  "/>

  <!-- Cheek left -->
  <path class="head-region" data-region="front_cheek_left" d="
    M 40 130 C 42 144, 48 158, 56 168
    L 70 168 C 70 156, 68 142, 65 130
    L 52 136 Z
  "/>

  <!-- Cheek right -->
  <path class="head-region" data-region="front_cheek_right" d="
    M 160 130 C 158 144, 152 158, 144 168
    L 130 168 C 132 156, 132 142, 135 130
    L 148 136 Z
  "/>

  <!-- Jaw left -->
  <path class="head-region" data-region="front_jaw_left" d="
    M 56 168 C 60 178, 68 190, 80 200
    L 92 200 C 90 188, 86 176, 82 164
    L 70 168 Z
  "/>

  <!-- Jaw right -->
  <path class="head-region" data-region="front_jaw_right" d="
    M 144 168 C 140 178, 132 190, 120 200
    L 108 200 C 110 188, 114 176, 118 164
    L 130 168 Z
  "/>

  <!-- Chin -->
  <path class="head-region" data-region="front_chin" d="
    M 82 164 C 88 158, 100 156, 118 164
    L 120 200 C 114 210, 100 215, 80 200 Z
  "/>

</svg>
