<svg xmlns="http://www.w3.org/2000/svg" viewBox="0 0 470 740" role="img" aria-label="Front head view">

  <!-- Anatomical naming: viewer's right = patient's LEFT -->

  <path class="head-region" data-region="front_forehead_left" d="M 237 14 L 237 238 L 281 242 L 318 236 L 339 237 L 408 222 L 434 191 L 434 163 L 428 129 L 396 78 L 373 55 L 337 35 L 296 22 Z"/>
  <path class="head-region" data-region="front_forehead_right" d="M 237 17 L 202 17 L 143 31 L 92 59 L 71 81 L 44 123 L 35 163 L 35 193 L 47 201 L 67 230 L 93 229 L 157 239 L 174 238 L 185 242 L 233 239 L 236 232 Z"/>
  <path class="head-region" data-region="front_nose" d="M 205 241 L 205 257 L 209 269 L 209 334 L 205 345 L 205 375 L 212 388 L 236 389 L 268 386 L 268 363 L 264 347 L 264 330 L 266 323 L 266 273 L 264 266 L 265 242 L 243 241 L 237 238 L 232 241 Z"/>
  <path class="head-region" data-region="front_face_left" d="M 398 227 L 358 233 L 347 237 L 298 239 L 282 243 L 269 242 L 265 245 L 268 263 L 266 266 L 265 344 L 269 365 L 269 387 L 345 382 L 359 377 L 399 370 L 401 358 L 388 334 L 388 323 L 384 317 L 383 304 L 386 274 L 393 259 L 397 240 L 401 236 Z"/>
  <path class="head-region" data-region="front_face_right" d="M 76 230 L 75 244 L 85 277 L 86 299 L 84 334 L 75 355 L 75 369 L 81 374 L 100 376 L 118 382 L 203 387 L 205 382 L 204 346 L 208 332 L 208 272 L 204 246 L 199 243 L 173 239 Z"/>
  <path class="head-region" data-region="front_temple_right" d="M 36 197 L 33 278 L 29 288 L 21 294 L 16 302 L 16 315 L 28 388 L 37 411 L 50 402 L 64 383 L 73 375 L 75 356 L 83 339 L 85 287 L 72 238 L 63 229 L 49 207 Z"/>
  <path class="head-region" data-region="front_temple_left" d="M 432 194 L 414 216 L 400 229 L 401 235 L 397 241 L 392 263 L 386 277 L 383 303 L 384 316 L 388 323 L 388 335 L 401 358 L 403 368 L 410 375 L 415 384 L 416 391 L 428 403 L 434 404 L 442 389 L 453 324 L 454 297 L 438 279 L 436 268 L 434 197 Z"/>
  <path class="head-region" data-region="front_jaw_right" d="M 179 387 L 136 385 L 122 382 L 116 383 L 80 374 L 71 373 L 68 375 L 39 410 L 55 432 L 60 461 L 66 480 L 69 483 L 76 484 L 88 490 L 99 490 L 117 484 L 143 468 L 162 449 L 174 428 L 179 408 Z"/>
  <path class="head-region" data-region="front_jaw_left" d="M 296 389 L 292 396 L 293 416 L 301 438 L 313 456 L 320 463 L 340 478 L 374 493 L 383 491 L 390 485 L 400 484 L 407 472 L 413 438 L 426 414 L 432 408 L 415 392 L 416 390 L 402 369 L 381 377 L 357 379 L 342 384 Z"/>
  <path class="head-region" data-region="front_chin_left" d="M 399 482 L 375 493 L 367 501 L 364 501 L 355 510 L 353 510 L 332 531 L 328 539 L 322 543 L 322 547 L 311 560 L 310 565 L 302 577 L 296 594 L 296 599 L 293 604 L 293 620 L 303 614 L 320 597 L 386 517 L 400 491 L 401 484 Z"/>
  <path class="head-region" data-region="front_chin_right" d="M 68 483 L 69 489 L 86 519 L 131 575 L 163 611 L 171 618 L 181 622 L 178 603 L 169 581 L 169 577 L 166 574 L 160 560 L 138 528 L 107 501 L 103 500 L 98 493 L 91 490 L 85 490 L 76 485 Z"/>

</svg>
