<svg xmlns="http://www.w3.org/2000/svg" viewBox="0 0 200 280" role="img" aria-label="Right side head view">

  <!-- ── Head outline (right profile, face points right) ───────────────── -->
  <path class="head-outline" d="
    M 88 22
    C 108 20, 130 34, 138 56
    C 144 70, 146 84, 146 94
    C 146 104, 148 112, 152 122
    C 156 132, 154 142, 146 150
    C 140 156, 136 164, 132 174
    C 128 184, 122 196, 108 208
    L 108 250
    L 80 250
    L 80 208
    C 68 196, 52 174, 48 148
    C 44 122, 46 90, 52 62
    C 60 32, 72 22, 88 22 Z
  "/>

  <!-- Ear (left side of image = right ear, visible in right profile) -->
  <path class="head-outline" d="
    M 72 108
    C 64 102, 50 104, 46 118
    C 42 132, 46 152, 52 158
    C 58 164, 66 162, 70 154
    C 74 146, 74 132, 72 118
    C 72 114, 72 110, 72 108 Z
  "/>
  <!-- Inner ear detail -->
  <path class="head-detail" d="M 66 114 C 60 110, 52 112, 50 122 C 48 132, 52 146, 57 152"/>

  <!-- Hairline -->
  <path class="head-detail" d="M 138 54 C 130 36, 112 22, 88 22 C 72 22, 58 30, 52 44"/>

  <!-- Eyebrow -->
  <path class="head-detail" d="M 144 82 C 136 76, 124 74, 114 77"/>

  <!-- Eye -->
  <path class="head-detail" d="M 144 90 C 136 84, 124 84, 116 90 C 124 96, 136 96, 144 90 Z"/>

  <!-- Nose bridge and tip -->
  <path class="head-detail" d="
    M 142 92 C 144 104, 148 116, 152 124
    C 148 130, 140 134, 134 130
  "/>

  <!-- Mouth -->
  <path class="head-detail" d="M 142 158 C 136 154, 126 154, 122 158 C 126 163, 136 163, 142 158"/>

  <!-- Neck -->
  <path class="head-detail" d="M 108 248 C 100 252, 88 252, 80 248"/>

  <!-- ── Clickable regions ──────────────────────────────────────────────── -->

  <!-- Crown -->
  <path class="head-region" data-region="right_crown" d="
    M 122 26 C 108 18, 84 18, 68 28
    C 62 38, 58 52, 60 62
    L 72 56 C 76 44, 86 32, 100 28
    L 114 28 Z
  "/>

  <!-- Forehead -->
  <path class="head-region" data-region="right_forehead" d="
    M 138 54 C 134 38, 124 28, 112 26
    L 100 28 C 88 32, 78 44, 74 56
    L 74 90 C 86 88, 100 86, 112 82
    L 128 78 Z
  "/>

  <!-- Temple (above ear, upper side) -->
  <path class="head-region" data-region="right_temple" d="
    M 74 56 L 60 62 C 52 76, 50 92, 52 108
    L 72 108 C 72 98, 72 88, 74 78
    L 74 56 Z
  "/>

  <!-- Eye area -->
  <path class="head-region" data-region="right_eye" d="
    M 146 76 C 138 70, 122 70, 110 74
    L 110 106 C 122 106, 136 104, 146 100
    L 148 88 Z
  "/>

  <!-- Nose -->
  <path class="head-region" data-region="right_nose" d="
    M 146 100 C 142 94, 136 90, 128 90
    L 126 130 C 132 134, 142 132, 148 126
    L 152 112 Z
  "/>

  <!-- Ear -->
  <path class="head-region" data-region="right_ear" d="
    M 72 108 C 72 108, 46 108, 46 108
    C 42 122, 46 148, 52 158
    C 58 164, 66 162, 70 154
    C 74 146, 74 132, 72 118
    C 72 114, 72 110, 72 108 Z
  "/>

  <!-- Cheek -->
  <path class="head-region" data-region="right_cheek" d="
    M 146 100 C 140 106, 134 112, 128 118
    L 128 152 C 136 150, 144 144, 148 136
    L 152 118 Z
  "/>

  <!-- Jaw -->
  <path class="head-region" data-region="right_jaw" d="
    M 128 118 C 122 126, 120 136, 122 150
    L 122 166 C 124 174, 124 186, 118 198
    L 104 204 C 108 196, 114 184, 118 172
    L 120 156 C 118 146, 118 136, 122 126
    L 128 118 Z
  "/>

  <!-- Occipital (back of skull) -->
  <path class="head-region" data-region="right_occipital" d="
    M 60 62 C 52 80, 48 100, 50 120
    L 72 120 L 72 108
    C 52 108, 52 90, 58 74
    L 60 62 Z
  "/>

  <!-- Neck -->
  <path class="head-region" data-region="right_neck" d="
    M 118 198 C 112 206, 104 212, 104 220
    L 104 250 L 80 250 L 80 220
    C 80 212, 76 202, 70 194
    L 82 200 C 88 210, 100 214, 112 208
    L 118 198 Z
  "/>

</svg>
