<svg xmlns="http://www.w3.org/2000/svg" viewBox="0 0 470 740" role="img" aria-label="Back head view">

  <path class="head-region" data-region="back_crown_right" d="M 306 17 L 339 29 L 373 49 L 400 75 L 420 107 L 437 155 L 440 273 L 234 289 L 234 17 Z"/>
  <path class="head-region" data-region="back_crown_left" d="M 234 17 L 234 289 L 15 287 L 26 275 L 28 165 L 34 133 L 47 105 L 74 67 L 97 47 L 128 29 L 164 17 Z"/>
  <path class="head-region" data-region="back_occipital_right" d="M 458 297 L 459 317 L 442 407 L 424 429 L 405 495 L 234 537 L 234 289 Z"/>
  <path class="head-region" data-region="back_occipital_left" d="M 234 289 L 234 537 L 63 497 L 48 439 L 24 403 L 8 305 Z"/>
  <path class="head-region" data-region="back_neck_right" d="M 371 549 L 390 599 L 412 625 L 412 639 L 390 667 L 363 691 L 328 711 L 300 721 L 234 721 L 234 537 Z"/>
  <path class="head-region" data-region="back_neck_left" d="M 234 537 L 234 721 L 163 721 L 100 687 L 54 637 L 55 623 L 84 585 L 96 547 Z"/>

</svg>
