<svg xmlns="http://www.w3.org/2000/svg" viewBox="0 0 200 280" role="img" aria-label="Right side head view">
  <!-- Right profile silhouette (mirror of left) -->
  <path class="head-outline" d="
    M 70 22
    C 86 18, 104 20, 118 28
    C 136 38, 148 56, 154 76
    C 160 96, 158 116, 152 132
    C 148 144, 142 154, 140 166
    C 138 178, 138 190, 136 200
    C 134 214, 128 226, 118 234
    C 110 240, 98 244, 88 242
    C 80 240, 72 234, 66 226
    C 60 216, 60 204, 62 192
    C 64 180, 70 170, 74 158
    L 40 158
    C 38 148, 36 138, 38 128
    C 42 110, 52 96, 50 82
    C 48 68, 38 58, 36 48
    C 46 34, 58 24, 70 22 Z
  "/>

  <!-- Ear (right side — appears on the left of this view) -->
  <path class="head-outline" d="
    M 42 120 C 40 110, 38 100, 40 92
    C 42 84, 46 78, 50 78
    C 52 84, 52 92, 50 100
    C 48 110, 44 116, 42 120 Z
  "/>
  <path class="head-detail" d="M 48 90 C 50 96, 50 104, 48 108"/>

  <!-- Eye detail -->
  <path class="head-detail" d="M 120 98 C 114 94, 104 94, 98 98 C 104 104, 114 104, 120 98 Z"/>
  <circle cx="109" cy="99" r="3" fill="rgba(255,255,255,0.12)" class="head-detail"/>

  <!-- Eyebrow -->
  <path class="head-detail" d="M 122 90 C 114 86, 102 86, 94 90"/>

  <!-- Nose bridge + tip -->
  <path class="head-detail" d="M 122 98 C 126 110, 128 120, 126 130 C 124 136, 118 138, 114 134"/>

  <!-- Mouth -->
  <path class="head-detail" d="M 120 158 C 116 154, 110 154, 106 158 C 110 162, 116 162, 120 158"/>

  <!-- Jaw angle -->
  <path class="head-detail" d="M 74 158 C 64 168, 62 184, 66 196"/>

  <!-- Neck lines -->
  <path class="head-detail" d="M 100 234 L 100 258 M 116 236 L 118 260"/>

  <!-- ── Clickable regions ─────────────────────────────────────────────── -->

  <!-- Crown -->
  <path class="head-region" data-region="right_crown" d="
    M 100 20 C 84 16, 64 22, 52 34
    L 64 44 C 74 34, 90 28, 102 30
    L 106 28 Z
  "/>

  <!-- Forehead -->
  <path class="head-region" data-region="right_forehead" d="
    M 148 68 C 142 52, 130 38, 118 30
    L 102 30 C 96 32, 92 36, 92 42
    L 96 64 C 104 62, 116 62, 126 70
    L 138 76 Z
  "/>

  <!-- Temple -->
  <path class="head-region" data-region="right_temple" d="
    M 156 86 C 152 72, 144 62, 138 66
    L 126 70 C 128 80, 130 90, 130 100
    L 140 104 C 148 98, 154 92, 156 86 Z
  "/>

  <!-- Eye area -->
  <path class="head-region" data-region="right_eye" d="
    M 136 88 C 130 82, 120 80, 104 82
    L 96 86 C 96 96, 100 106, 106 110
    L 124 110 C 132 106, 138 98, 136 88 Z
  "/>

  <!-- Cheek -->
  <path class="head-region" data-region="right_cheek" d="
    M 140 104 C 136 100, 130 100, 124 110
    L 120 128 C 126 134, 132 138, 138 138
    L 144 126 C 144 116, 142 108, 140 104 Z
  "/>

  <!-- Nose -->
  <path class="head-region" data-region="right_nose" d="
    M 106 110 C 100 106, 94 104, 90 108
    L 88 124 C 92 130, 100 132, 108 130
    L 112 120 Z
  "/>

  <!-- Ear -->
  <path class="head-region" data-region="right_ear" d="
    M 52 78 C 46 74, 38 76, 36 88
    C 34 100, 40 116, 46 122
    C 52 118, 54 108, 54 98
    C 54 88, 52 82, 52 78 Z
  "/>

  <!-- Jaw -->
  <path class="head-region" data-region="right_jaw" d="
    M 138 138 C 132 138, 126 136, 120 130
    L 110 142 C 106 154, 98 164, 92 172
    L 104 176 C 114 168, 126 158, 134 150
    L 140 140 Z
  "/>

  <!-- Occipital -->
  <path class="head-region" data-region="right_occipital" d="
    M 64 44 C 52 54, 42 72, 42 88
    L 52 90 C 52 76, 58 62, 68 52 Z
  "/>

  <!-- Neck -->
  <path class="head-region" data-region="right_neck" d="
    M 92 172 C 84 176, 74 178, 70 188
    L 72 210 C 80 220, 88 228, 96 232
    L 104 228 C 104 218, 102 206, 100 196
    L 96 186 Z
  "/>
</svg>
