<svg xmlns="http://www.w3.org/2000/svg" viewBox="0 0 200 280" role="img" aria-label="Left side head view">

  <!-- ── Head outline (left profile, face points left) ─────────────────── -->
  <!-- Front of face: forehead → brow → nose → lips → chin → jaw -->
  <!-- Back of head: smooth cranial curve -->
  <path class="head-outline" d="
    M 112 22
    C 92 20, 70 34, 62 56
    C 56 70, 54 84, 54 94
    C 54 104, 52 112, 48 122
    C 44 132, 46 142, 54 150
    C 60 156, 64 164, 68 174
    C 72 184, 78 196, 92 208
    L 92 250
    L 120 250
    L 120 208
    C 132 196, 148 174, 152 148
    C 156 122, 154 90, 148 62
    C 140 32, 128 22, 112 22 Z
  "/>

  <!-- Ear (right side of image = left ear, visible in left profile) -->
  <path class="head-outline" d="
    M 128 108
    C 136 102, 150 104, 154 118
    C 158 132, 154 152, 148 158
    C 142 164, 134 162, 130 154
    C 126 146, 126 132, 128 118
    C 128 114, 128 110, 128 108 Z
  "/>
  <!-- Inner ear detail -->
  <path class="head-detail" d="M 134 114 C 140 110, 148 112, 150 122 C 152 132, 148 146, 143 152"/>

  <!-- Hairline -->
  <path class="head-detail" d="M 62 54 C 70 36, 88 22, 112 22 C 128 22, 142 30, 148 44"/>

  <!-- Eyebrow -->
  <path class="head-detail" d="M 56 82 C 64 76, 76 74, 86 77"/>

  <!-- Eye -->
  <path class="head-detail" d="M 56 90 C 64 84, 76 84, 84 90 C 76 96, 64 96, 56 90 Z"/>

  <!-- Nose bridge and tip -->
  <path class="head-detail" d="
    M 58 92 C 56 104, 52 116, 48 124
    C 52 130, 60 134, 66 130
  "/>

  <!-- Mouth -->
  <path class="head-detail" d="M 58 158 C 64 154, 74 154, 78 158 C 74 163, 64 163, 58 158"/>

  <!-- Neck -->
  <path class="head-detail" d="M 92 248 C 100 252, 112 252, 120 248"/>

  <!-- ── Clickable regions ──────────────────────────────────────────────── -->

  <!-- Crown -->
  <path class="head-region" data-region="left_crown" d="
    M 78 26 C 92 18, 116 18, 132 28
    C 138 38, 142 52, 140 62
    L 128 56 C 124 44, 114 32, 100 28
    L 86 28 Z
  "/>

  <!-- Forehead -->
  <path class="head-region" data-region="left_forehead" d="
    M 62 54 C 66 38, 76 28, 88 26
    L 100 28 C 112 32, 122 44, 126 56
    L 126 90 C 114 88, 100 86, 88 82
    L 72 78 Z
  "/>

  <!-- Temple (above ear, upper side) -->
  <path class="head-region" data-region="left_temple" d="
    M 126 56 L 140 62 C 148 76, 150 92, 148 108
    L 128 108 C 128 98, 128 88, 126 78
    L 126 56 Z
  "/>

  <!-- Eye area -->
  <path class="head-region" data-region="left_eye" d="
    M 54 76 C 62 70, 78 70, 90 74
    L 90 106 C 78 106, 64 104, 54 100
    L 52 88 Z
  "/>

  <!-- Nose -->
  <path class="head-region" data-region="left_nose" d="
    M 54 100 C 58 94, 64 90, 72 90
    L 74 130 C 68 134, 58 132, 52 126
    L 48 112 Z
  "/>

  <!-- Ear -->
  <path class="head-region" data-region="left_ear" d="
    M 128 108 C 128 108, 154 108, 154 108
    C 158 122, 154 148, 148 158
    C 142 164, 134 162, 130 154
    C 126 146, 126 132, 128 118
    C 128 114, 128 110, 128 108 Z
  "/>

  <!-- Cheek -->
  <path class="head-region" data-region="left_cheek" d="
    M 54 100 C 60 106, 66 112, 72 118
    L 72 152 C 64 150, 56 144, 52 136
    L 48 118 Z
  "/>

  <!-- Jaw -->
  <path class="head-region" data-region="left_jaw" d="
    M 72 118 C 78 126, 80 136, 78 150
    L 78 166 C 76 174, 76 186, 82 198
    L 96 204 C 92 196, 86 184, 82 172
    L 80 156 C 82 146, 82 136, 78 126
    L 72 118 Z
  "/>

  <!-- Occipital (back of skull) -->
  <path class="head-region" data-region="left_occipital" d="
    M 140 62 C 148 80, 152 100, 150 120
    L 128 120 L 128 108
    C 148 108, 148 90, 142 74
    L 140 62 Z
  "/>

  <!-- Neck -->
  <path class="head-region" data-region="left_neck" d="
    M 82 198 C 88 206, 96 212, 96 220
    L 96 250 L 120 250 L 120 220
    C 120 212, 124 202, 130 194
    L 118 200 C 112 210, 100 214, 88 208
    L 82 198 Z
  "/>

</svg>
