<svg xmlns="http://www.w3.org/2000/svg" viewBox="0 0 470 740" role="img" aria-label="Front head view">

  <!-- Anatomical naming: viewer's right = patient's LEFT -->

  <path class="head-region" data-region="front_forehead_left" d="M 237 13 L 237 237 L 281 241 L 318 235 L 339 236 L 408 221 L 434 190 L 434 162 L 428 128 L 396 77 L 373 54 L 337 34 L 296 21 Z"/>
  <path class="head-region" data-region="front_forehead_right" d="M 236 17 L 201 17 L 142 31 L 91 59 L 70 81 L 43 123 L 34 163 L 34 193 L 46 201 L 66 230 L 92 229 L 156 239 L 173 238 L 184 242 L 232 239 L 235 232 Z"/>
  <path class="head-region" data-region="front_nose" d="M 204 242 L 204 258 L 208 270 L 208 335 L 204 346 L 204 376 L 211 389 L 235 390 L 267 387 L 267 364 L 263 348 L 263 331 L 265 324 L 265 274 L 263 267 L 264 243 L 242 242 L 236 239 L 231 242 Z"/>
  <path class="head-region" data-region="front_face_left" d="M 398 227 L 358 233 L 347 237 L 298 239 L 282 243 L 269 242 L 265 245 L 268 263 L 266 266 L 265 344 L 269 365 L 269 387 L 345 382 L 359 377 L 399 370 L 401 358 L 388 334 L 388 323 L 384 317 L 383 304 L 386 274 L 393 259 L 397 240 L 401 236 Z"/>
  <path class="head-region" data-region="front_face_right" d="M 76 231 L 75 245 L 85 278 L 86 300 L 84 335 L 75 356 L 75 370 L 81 375 L 100 377 L 118 383 L 203 388 L 205 383 L 204 347 L 208 333 L 208 273 L 204 247 L 199 244 L 173 240 Z"/>
  <path class="head-region" data-region="front_temple_right" d="M 35 193 L 32 274 L 28 284 L 20 290 L 15 298 L 15 311 L 27 384 L 36 407 L 49 398 L 63 379 L 72 371 L 74 352 L 82 335 L 84 283 L 71 234 L 62 225 L 48 203 Z"/>
  <path class="head-region" data-region="front_temple_left" d="M 433 194 L 415 216 L 401 229 L 402 235 L 398 241 L 393 263 L 387 277 L 384 303 L 385 316 L 389 323 L 389 335 L 402 358 L 404 368 L 411 375 L 416 384 L 417 391 L 429 403 L 435 404 L 443 389 L 454 324 L 455 297 L 439 279 L 437 268 L 435 197 Z"/>
  <path class="head-region" data-region="front_jaw_right" d="M 178 387 L 135 385 L 121 382 L 115 383 L 79 374 L 70 373 L 67 375 L 38 410 L 54 432 L 59 461 L 65 480 L 68 483 L 75 484 L 87 490 L 98 490 L 116 484 L 142 468 L 161 449 L 173 428 L 178 408 Z"/>
  <path class="head-region" data-region="front_jaw_left" d="M 297 388 L 293 395 L 294 415 L 302 437 L 314 455 L 321 462 L 341 477 L 375 492 L 384 490 L 391 484 L 401 483 L 408 471 L 414 437 L 427 413 L 433 407 L 416 391 L 417 389 L 403 368 L 382 376 L 358 378 L 343 383 Z"/>
  <path class="head-region" data-region="front_chin_left" d="M 400 484 L 376 495 L 368 503 L 365 503 L 356 512 L 354 512 L 333 533 L 329 541 L 323 545 L 323 549 L 312 562 L 311 567 L 303 579 L 297 596 L 297 601 L 294 606 L 294 622 L 304 616 L 321 599 L 387 519 L 401 493 L 402 486 Z"/>
  <path class="head-region" data-region="front_chin_right" d="M 68 485 L 69 491 L 86 521 L 131 577 L 163 613 L 171 620 L 181 624 L 178 605 L 169 583 L 169 579 L 166 576 L 160 562 L 138 530 L 107 503 L 103 502 L 98 495 L 91 492 L 85 492 L 76 487 Z"/>

</svg>
