<svg xmlns="http://www.w3.org/2000/svg" viewBox="0 0 200 280" role="img" aria-label="Left side head view">

  <!-- ── Silhouette (face points left) ─────────────────────────────────── -->
  <path class="head-outline" d="
    M 116 18
    C 98 16, 76 28, 66 50
    C 58 64, 56 80, 56 92
    C 56 102, 52 112, 46 124
    C 42 134, 48 146, 56 154
    C 62 160, 66 170, 70 180
    C 74 192, 80 204, 94 216
    L 94 256
    L 124 256
    L 124 216
    C 136 204, 152 176, 156 146
    C 160 116, 158 82, 150 54
    C 142 28, 130 18, 116 18 Z
  "/>

  <!-- Ear (positioned at mid-skull, right side of image) -->
  <path class="head-outline" d="
    M 132 106
    C 138 99, 156 101, 160 117
    C 164 133, 160 155, 153 162
    C 146 169, 137 167, 132 157
    C 127 147, 127 130, 132 117
    C 132 113, 132 109, 132 106 Z
  "/>
  <!-- Ear inner helix -->
  <path class="head-detail" d="
    M 138 114 C 144 108, 154 111, 157 124
    C 160 137, 155 153, 148 158
  "/>
  <!-- Ear lobe crease -->
  <path class="head-detail" d="M 135 153 C 138 160, 144 162, 148 158"/>
  <!-- Tragus -->
  <path class="head-detail" d="M 132 110 C 128 118, 128 128, 132 134"/>

  <!-- Hairline -->
  <path class="head-detail" d="M 66 50 C 74 34, 92 18, 116 18 C 132 18, 144 26, 150 42"/>

  <!-- Eyebrow -->
  <path class="head-detail" d="M 57 80 C 67 72, 80 70, 91 74"/>

  <!-- Eye — upper lid -->
  <path class="head-detail" d="M 57 90 C 67 82, 82 82, 91 89"/>
  <!-- Eye — lower lid -->
  <path class="head-detail" d="M 57 90 C 67 98, 82 98, 91 89"/>

  <!-- Nose bridge and tip (most-forward point) -->
  <path class="head-detail" d="
    M 57 88 C 55 102, 51 114, 45 126
  "/>
  <!-- Nostril / under-nose -->
  <path class="head-detail" d="M 47 134 C 52 142, 62 146, 68 142"/>

  <!-- Philtrum -->
  <path class="head-detail" d="M 58 154 C 62 160, 68 160, 70 154"/>

  <!-- Upper lip -->
  <path class="head-detail" d="M 56 160 C 62 154, 74 154, 78 160"/>
  <!-- Lower lip -->
  <path class="head-detail" d="M 58 164 C 64 174, 78 173, 82 164"/>

  <!-- Chin -->
  <path class="head-detail" d="M 68 182 C 73 188, 80 190, 84 186"/>

  <!-- Jaw angle -->
  <path class="head-detail" d="M 86 204 C 90 210, 94 214, 94 218"/>

  <!-- Neck front line -->
  <path class="head-detail" d="M 94 218 C 90 232, 88 246, 88 256"/>

  <!-- Neck base -->
  <path class="head-detail" d="M 88 255 C 98 260, 114 260, 124 255"/>

  <!-- ── Clickable regions ──────────────────────────────────────────────── -->

  <!-- Crown -->
  <path class="head-region" data-region="left_crown" d="
    M 80 22 C 94 14, 120 16, 136 28
    C 142 38, 148 52, 146 66
    L 130 58 C 126 44, 114 28, 98 22 Z
  "/>

  <!-- Forehead -->
  <path class="head-region" data-region="left_forehead" d="
    M 66 50 C 70 34, 80 22, 96 20
    L 110 22 C 122 26, 132 40, 134 56
    L 130 90 C 116 86, 100 84, 86 80
    L 70 72 Z
  "/>

  <!-- Temple (above and in front of ear) -->
  <path class="head-region" data-region="left_temple" d="
    M 130 58 L 146 66 C 152 80, 154 96, 152 112
    L 132 112 L 132 106 C 132 94, 132 80, 130 68
    L 130 58 Z
  "/>

  <!-- Eye area -->
  <path class="head-region" data-region="left_eye" d="
    M 56 74 C 64 66, 80 64, 94 68
    L 94 104 C 80 104, 64 102, 56 96
    L 52 84 Z
  "/>

  <!-- Nose -->
  <path class="head-region" data-region="left_nose" d="
    M 56 88 C 60 80, 68 76, 78 78
    L 76 138 C 68 146, 58 144, 50 134
    L 44 116 Z
  "/>

  <!-- Ear -->
  <path class="head-region" data-region="left_ear" d="
    M 132 106
    C 138 99, 160 101, 160 117
    C 164 133, 160 155, 153 162
    C 146 169, 137 167, 132 157
    C 127 147, 127 130, 132 117
    C 132 113, 132 109, 132 106 Z
  "/>

  <!-- Cheek -->
  <path class="head-region" data-region="left_cheek" d="
    M 56 96 C 60 106, 64 118, 68 130
    L 68 154 C 60 150, 52 140, 46 128
    L 44 110 Z
  "/>

  <!-- Jaw -->
  <path class="head-region" data-region="left_jaw" d="
    M 68 140 C 72 150, 74 162, 72 176
    L 74 194 C 78 204, 84 214, 96 220
    L 104 216 C 94 206, 86 194, 80 182
    L 78 162 C 80 150, 80 140, 76 136 Z
  "/>

  <!-- Occipital (back of skull) -->
  <path class="head-region" data-region="left_occipital" d="
    M 132 58 L 146 66 C 154 86, 158 108, 156 132
    L 132 132 L 132 112
    C 152 112, 154 88, 148 68
    L 146 66 Z
  "/>

  <!-- Neck -->
  <path class="head-region" data-region="left_neck" d="
    M 92 216 C 88 226, 86 240, 86 256
    L 124 256 L 124 240
    C 124 228, 120 218, 116 214
    L 104 218 C 100 228, 96 234, 92 236
    L 90 226 Z
  "/>

</svg>
